<svg width="322" height="142" viewBox="0 0 322 142" fill="none" xmlns="http://www.w3.org/2000/svg">
<g filter="url(#filter0_di)">
<path d="M4.06503 17.8865C4.06503 8.80953 14.5 0.796207 24.0677 0.796204H298.104C314.499 0.796204 318 17.8865 318 17.8865C318 62.7313 318 26.9335 318 39.5267C318 71.7783 318 39.5267 318 71.7783C318 92.7546 318 71.7783 318 92.7546C318 108.365 318 104 318 115.904C318 134 298.104 134 298.104 134H24.0677C13.0662 134 3.0979 127.934 4.06503 115.904C4.99216 104.348 4.06504 107.358 4.06503 92.7546C4.06502 71.7783 4.06503 71.7783 4.06503 71.7783L4.06503 59.1043C4.06503 38.1279 4.06503 57.3152 4.06503 37.4901C4.06503 20.9024 4.06503 29.5 4.06503 17.8865Z" fill="url(#paint0_linear)"/>
</g>
<g filter="url(#filter1_di)">
<path d="M82.438 104.229C102.894 104.012 115.129 95.2495 114.977 81.0126C114.863 70.2509 105.985 62.5533 92.9126 61.4586L92.9078 61.0102C102.488 59.5632 109.641 50.3798 109.549 41.8042C109.42 29.5852 98.4371 23.1691 81.3795 23.3502L43 23.7577L43.8587 104.639L82.438 104.229ZM58.0343 33.8566L77.8905 33.6457C88.6847 33.5311 94.8584 37.6137 94.9382 45.1245C95.0233 53.1399 87.9417 57.6995 75.0153 57.8367L58.2907 58.0143L58.0343 33.8566ZM58.6752 94.2233L58.3925 67.5992L78.1151 67.3898C92.2408 67.2399 99.6179 71.6459 99.7107 80.39C99.8035 89.1337 92.7237 93.8618 79.2641 94.0047L58.6752 94.2233Z" fill="white"/>
<path d="M82.438 104.229C102.894 104.012 115.129 95.2495 114.977 81.0126C114.863 70.2509 105.985 62.5533 92.9126 61.4586L92.9078 61.0102C102.488 59.5632 109.641 50.3798 109.549 41.8042C109.42 29.5852 98.4371 23.1691 81.3795 23.3502L43 23.7577L43.8587 104.639L82.438 104.229ZM58.0343 33.8566L77.8905 33.6457C88.6847 33.5311 94.8584 37.6137 94.9382 45.1245C95.0233 53.1399 87.9417 57.6995 75.0153 57.8367L58.2907 58.0143L58.0343 33.8566ZM58.6752 94.2233L58.3925 67.5992L78.1151 67.3898C92.2408 67.2399 99.6179 71.6459 99.7107 80.39C99.8035 89.1337 92.7237 93.8618 79.2641 94.0047L58.6752 94.2233Z" stroke="white"/>
</g>
<g filter="url(#filter2_di)">
<path d="M157.98 76.6508L139.488 28H116.602L147.073 105H167.868L198.398 28H175.872L157.98 76.6508Z" fill="white"/>
</g>
<g filter="url(#filter3_di)">
<path d="M268.07 29H259.93C256.954 29 254.541 31.2909 254.541 34.1187V58.0145H225.458V34.1187C225.458 31.2909 223.046 29 220.07 29H211.93C208.954 29 206.542 31.2909 206.542 34.1187V99.8813C206.542 102.709 208.954 105 211.93 105H220.07C223.046 105 225.458 102.709 225.458 99.8813V75.9855H254.542V99.8813C254.542 102.709 256.955 105 259.93 105H268.07C271.046 105 273.459 102.709 273.459 99.8813V34.1187C273.458 31.2909 271.045 29 268.07 29Z" fill="white"/>
</g>
<defs>
<filter id="filter0_di" x="0" y="0.796204" width="322" height="141.204" filterUnits="userSpaceOnUse" color-interpolation-filters="sRGB">
<feFlood flood-opacity="0" result="BackgroundImageFix"/>
<feColorMatrix in="SourceAlpha" type="matrix" values="0 0 0 0 0 0 0 0 0 0 0 0 0 0 0 0 0 0 127 0"/>
<feOffset dy="4"/>
<feGaussianBlur stdDeviation="2"/>
<feColorMatrix type="matrix" values="0 0 0 0 0 0 0 0 0 0 0 0 0 0 0 0 0 0 0.25 0"/>
<feBlend mode="normal" in2="BackgroundImageFix" result="effect1_dropShadow"/>
<feBlend mode="normal" in="SourceGraphic" in2="effect1_dropShadow" result="shape"/>
<feColorMatrix in="SourceAlpha" type="matrix" values="0 0 0 0 0 0 0 0 0 0 0 0 0 0 0 0 0 0 127 0" result="hardAlpha"/>
<feOffset dy="4"/>
<feGaussianBlur stdDeviation="2"/>
<feComposite in2="hardAlpha" operator="arithmetic" k2="-1" k3="1"/>
<feColorMatrix type="matrix" values="0 0 0 0 0 0 0 0 0 0 0 0 0 0 0 0 0 0 0.25 0"/>
<feBlend mode="normal" in2="shape" result="effect2_innerShadow"/>
</filter>
<filter id="filter1_di" x="38.4947" y="22.8465" width="80.9841" height="90.2975" filterUnits="userSpaceOnUse" color-interpolation-filters="sRGB">
<feFlood flood-opacity="0" result="BackgroundImageFix"/>
<feColorMatrix in="SourceAlpha" type="matrix" values="0 0 0 0 0 0 0 0 0 0 0 0 0 0 0 0 0 0 127 0"/>
<feOffset dy="4"/>
<feGaussianBlur stdDeviation="2"/>
<feColorMatrix type="matrix" values="0 0 0 0 0 0 0 0 0 0 0 0 0 0 0 0 0 0 0.25 0"/>
<feBlend mode="normal" in2="BackgroundImageFix" result="effect1_dropShadow"/>
<feBlend mode="normal" in="SourceGraphic" in2="effect1_dropShadow" result="shape"/>
<feColorMatrix in="SourceAlpha" type="matrix" values="0 0 0 0 0 0 0 0 0 0 0 0 0 0 0 0 0 0 127 0" result="hardAlpha"/>
<feOffset dy="4"/>
<feGaussianBlur stdDeviation="2"/>
<feComposite in2="hardAlpha" operator="arithmetic" k2="-1" k3="1"/>
<feColorMatrix type="matrix" values="0 0 0 0 0 0 0 0 0 0 0 0 0 0 0 0 0 0 0.25 0"/>
<feBlend mode="normal" in2="shape" result="effect2_innerShadow"/>
</filter>
<filter id="filter2_di" x="111" y="28" width="93" height="85" filterUnits="userSpaceOnUse" color-interpolation-filters="sRGB">
<feFlood flood-opacity="0" result="BackgroundImageFix"/>
<feColorMatrix in="SourceAlpha" type="matrix" values="0 0 0 0 0 0 0 0 0 0 0 0 0 0 0 0 0 0 127 0"/>
<feOffset dy="4"/>
<feGaussianBlur stdDeviation="2"/>
<feColorMatrix type="matrix" values="0 0 0 0 0 0 0 0 0 0 0 0 0 0 0 0 0 0 0.25 0"/>
<feBlend mode="normal" in2="BackgroundImageFix" result="effect1_dropShadow"/>
<feBlend mode="normal" in="SourceGraphic" in2="effect1_dropShadow" result="shape"/>
<feColorMatrix in="SourceAlpha" type="matrix" values="0 0 0 0 0 0 0 0 0 0 0 0 0 0 0 0 0 0 127 0" result="hardAlpha"/>
<feOffset dy="4"/>
<feGaussianBlur stdDeviation="2"/>
<feComposite in2="hardAlpha" operator="arithmetic" k2="-1" k3="1"/>
<feColorMatrix type="matrix" values="0 0 0 0 0 0 0 0 0 0 0 0 0 0 0 0 0 0 0.25 0"/>
<feBlend mode="normal" in2="shape" result="effect2_innerShadow"/>
</filter>
<filter id="filter3_di" x="196" y="29" width="88" height="84" filterUnits="userSpaceOnUse" color-interpolation-filters="sRGB">
<feFlood flood-opacity="0" result="BackgroundImageFix"/>
<feColorMatrix in="SourceAlpha" type="matrix" values="0 0 0 0 0 0 0 0 0 0 0 0 0 0 0 0 0 0 127 0"/>
<feOffset dy="4"/>
<feGaussianBlur stdDeviation="2"/>
<feColorMatrix type="matrix" values="0 0 0 0 0 0 0 0 0 0 0 0 0 0 0 0 0 0 0.25 0"/>
<feBlend mode="normal" in2="BackgroundImageFix" result="effect1_dropShadow"/>
<feBlend mode="normal" in="SourceGraphic" in2="effect1_dropShadow" result="shape"/>
<feColorMatrix in="SourceAlpha" type="matrix" values="0 0 0 0 0 0 0 0 0 0 0 0 0 0 0 0 0 0 127 0" result="hardAlpha"/>
<feOffset dy="4"/>
<feGaussianBlur stdDeviation="2"/>
<feComposite in2="hardAlpha" operator="arithmetic" k2="-1" k3="1"/>
<feColorMatrix type="matrix" values="0 0 0 0 0 0 0 0 0 0 0 0 0 0 0 0 0 0 0.25 0"/>
<feBlend mode="normal" in2="shape" result="effect2_innerShadow"/>
</filter>
<linearGradient id="paint0_linear" x1="-18.859" y1="-19.6539" x2="148.767" y2="287.218" gradientUnits="userSpaceOnUse">
<stop stop-color="#9013FE"/>
<stop offset="1" stop-color="#6610F2"/>
</linearGradient>
</defs>
</svg>
