<svg id="Capa_1" enable-background="new 0 0 512.01 512.01" height="512" viewBox="0 0 512.01 512.01" width="512" xmlns="http://www.w3.org/2000/svg"><g><g><path d="m439.296 271.372c0-21.866-18.015-39.656-40.159-39.656-8.995 0-17.309 2.936-24.011 7.887-6.445-13.416-20.297-22.715-36.307-22.715-7.342 0-14.231 1.956-20.159 5.367v-79.757c15.384-2.314 29.568-9.402 40.679-20.504 13.505-13.495 20.943-31.367 20.943-50.324 0-39.18-33.834-71.67-72.72-71.67h-54.1c-5.523 0-10 4.478-10 10s4.477 10 10 10h54.1c28.577 0 52.72 23.662 52.72 51.67 0 24.588-17.917 45.455-41.62 50.506v-30.136c0-21.923-18.7-39.804-40.457-39.654-16.585.128-32.032 10.98-37.62 26.64-6.403-4.265-14.113-6.758-22.4-6.758-21.525 0-40.163 17.994-40.163 39.661v11.41c-11.285-.021-20.81-9.327-20.81-20.34 0-23.452-19.973-40.466-42.63-40.34-11.855 0-21.87-9.768-21.87-21.33 0-11.762 9.811-21.33 21.87-21.33h50.89c5.523 0 10-4.478 10-10s-4.477-10-10-10h-50.89c-23.087 0-41.87 18.541-41.87 41.33 0 22.403 19.174 41.33 41.87 41.33 11.735-.109 22.63 7.813 22.63 20.34 0 21.854 18.686 40.318 40.812 40.339v83.026c-11.989-11.246-27.612-17.411-44.235-17.411-.036 0-.073 0-.109 0-10.965.018-19.886 8.911-19.886 19.826v129.129c0 20.5 8.351 40.534 22.911 54.965l23.374 23.167c15.615 15.477 24.57 36.961 24.57 58.946v7.022c0 5.522 4.477 10 10 10h161.375c5.431 0 9.869-4.334 9.997-9.763l.146-6.159c.002-.079.003-.158.003-.237 0-22.475 9.297-44.293 25.507-59.86l23.835-22.89c15.115-14.516 23.784-34.86 23.784-55.817zm-37.637 127.303-23.835 22.89c-19.191 18.432-30.575 43.923-31.581 70.445h-141.638c-.777-26.236-11.776-51.668-30.447-70.174l-23.374-23.167c-10.797-10.701-16.99-25.558-16.99-40.76v-128.955c11.971.002 23.18 4.611 31.568 12.985 8.166 8.152 12.663 18.935 12.663 30.36v61.974c0 5.522 4.477 10 10 10s10-4.478 10-10v-222.349c0-10.717 9.534-19.655 20.157-19.655 11.116 0 20.16 8.819 20.16 19.66v177.638c0 5.522 4.477 10 10 10s10-4.478 10-10v-197.527c0-10.75 9.548-19.66 20.16-19.66 10.755 0 20.158 8.751 20.158 19.655v197.532c0 5.522 4.477 10 10 10s10-4.478 10-10v-33.023c0-10.839 9.043-19.656 20.159-19.656s20.159 8.817 20.159 19.656v33.023c0 5.522 4.477 10 10 10s10-4.478 10-10v-18.195c0-10.839 9.043-19.656 20.159-19.656s20.159 8.817 20.159 19.657l.001 85.91c0 15.541-6.429 30.628-17.638 41.392z"/><path d="m200.815 13.835c3.402 8.16 15.371 8.007 18.558-.228 3.36-8.685-6.496-16.937-14.466-12.173-4.195 2.508-5.969 7.891-4.092 12.401z"/></g></g></svg>