<svg width="251" height="161" viewBox="0 0 251 161" fill="none" xmlns="http://www.w3.org/2000/svg">
<g filter="url(#filter0_d)">
<path d="M69.2072 95.7351L35.7703 127.604L21.6642 112.975C17.7452 108.844 11.2392 108.612 7.03525 112.453C2.98825 116.693 2.98825 123.364 7.03525 127.604L28.4552 149.547C30.3092 151.623 32.9872 152.771 35.7692 152.682C38.5252 152.643 41.1543 151.516 43.0833 149.547L83.8342 110.886C84.0442 110.694 84.2452 110.492 84.4372 110.283C88.1432 106.243 87.8732 99.9641 83.8342 96.2581C79.9172 92.1261 73.4112 91.8941 69.2072 95.7351Z" fill="black"/>
<path d="M236.123 113.034H115.96C110.189 113.034 105.511 117.712 105.511 123.483C105.511 129.254 110.189 133.932 115.96 133.932H236.123C241.894 133.932 246.572 129.254 246.572 123.483C246.572 117.712 241.894 113.034 236.123 113.034Z" fill="black"/>
<path d="M236.123 29.4418H115.96C110.189 29.4418 105.511 34.1198 105.511 39.8908C105.511 45.6618 110.189 50.3398 115.96 50.3398H236.123C241.894 50.3398 246.572 45.6618 246.572 39.8908C246.572 34.1198 241.894 29.4418 236.123 29.4418Z" fill="black"/>
<path d="M14.604 77.5068H76.775C77.133 77.5258 77.491 77.5258 77.849 77.5068C83.323 77.2098 87.521 72.5318 87.224 67.0578V10.6338C87.224 4.86283 82.546 0.18483 76.775 0.18483H14.604C8.83299 0.18483 4.155 4.86283 4.155 10.6338V67.0578C4.136 67.4158 4.136 67.7738 4.155 68.1318C4.452 73.6068 9.12999 77.8038 14.604 77.5068ZM25.053 21.0828H66.326V56.6088H25.053V21.0828Z" fill="black"/>
</g>
<defs>
<filter id="filter0_d" x="0" y="0.18483" width="250.572" height="160.502" filterUnits="userSpaceOnUse" color-interpolation-filters="sRGB">
<feFlood flood-opacity="0" result="BackgroundImageFix"/>
<feColorMatrix in="SourceAlpha" type="matrix" values="0 0 0 0 0 0 0 0 0 0 0 0 0 0 0 0 0 0 127 0"/>
<feOffset dy="4"/>
<feGaussianBlur stdDeviation="2"/>
<feColorMatrix type="matrix" values="0 0 0 0 0 0 0 0 0 0 0 0 0 0 0 0 0 0 0.25 0"/>
<feBlend mode="normal" in2="BackgroundImageFix" result="effect1_dropShadow"/>
<feBlend mode="normal" in="SourceGraphic" in2="effect1_dropShadow" result="shape"/>
</filter>
</defs>
</svg>
