<svg width="291" height="228" viewBox="0 0 291 228" fill="none" xmlns="http://www.w3.org/2000/svg">
<g filter="url(#filter0_d)">
<path d="M131.598 32.6722H279.732C282.394 32.6722 284.552 30.5035 284.552 27.8277C284.552 25.1518 282.394 22.9824 279.732 22.9824H131.598C128.936 22.9824 126.778 25.1512 126.778 27.8277C126.778 30.5035 128.936 32.6722 131.598 32.6722Z" fill="black" stroke="black" stroke-width="4"/>
<path d="M279.732 47.008H131.598C128.936 47.008 126.778 49.1768 126.778 51.8533C126.778 54.5291 128.936 56.6978 131.598 56.6978H279.732C282.394 56.6978 284.552 54.5291 284.552 51.8533C284.552 49.1774 282.394 47.008 279.732 47.008Z" fill="black" stroke="black" stroke-width="4"/>
<path d="M131.598 80.7241H232.118C234.78 80.7241 236.938 78.5554 236.938 75.8796C236.938 73.2037 234.78 71.0343 232.118 71.0343H131.598C128.936 71.0343 126.778 73.2031 126.778 75.8796C126.778 78.5554 128.936 80.7241 131.598 80.7241Z" fill="black" stroke="black" stroke-width="4"/>
<path d="M279.732 138.712H131.598C128.936 138.712 126.778 140.88 126.778 143.556C126.778 146.232 128.936 148.401 131.598 148.401H279.732C282.394 148.401 284.552 146.232 284.552 143.556C284.552 140.88 282.394 138.712 279.732 138.712Z" fill="black" stroke="black" stroke-width="4"/>
<path d="M279.732 162.737H131.598C128.936 162.737 126.778 164.906 126.778 167.583C126.778 170.259 128.936 172.428 131.598 172.428H279.732C282.394 172.428 284.552 170.259 284.552 167.583C284.552 164.906 282.394 162.737 279.732 162.737Z" fill="black" stroke="black" stroke-width="4"/>
<path d="M131.598 196.453H232.118C234.78 196.453 236.938 194.285 236.938 191.609C236.938 188.933 234.78 186.764 232.118 186.764H131.598C128.936 186.764 126.778 188.933 126.778 191.609C126.778 194.285 128.936 196.453 131.598 196.453Z" fill="black" stroke="black" stroke-width="4"/>
<path d="M108.443 9.19055C105.726 6.78896 102.243 5.59624 98.6308 5.82586C95.0197 6.05871 91.7155 7.6906 89.3257 10.4214L86.8851 13.2111C78.3444 6.20812 67.4519 2 55.5961 2C43.3156 2 31.5306 6.54576 22.4128 14.8009C20.4348 16.592 20.2758 19.6552 22.0576 21.6442C23.8387 23.6324 26.8868 23.7922 28.8648 22.0018C36.2086 15.3527 45.7022 11.6905 55.5961 11.6905C65.0151 11.6905 73.6754 14.9924 80.5122 20.4948L60.0978 43.8238L52.772 35.2329C50.4175 32.4717 47.1339 30.7971 43.5267 30.5177C39.9239 30.2363 36.4197 31.3883 33.6721 33.755C28.0012 38.6416 27.3423 47.2538 32.2031 52.9541L49.6801 73.4495C52.2334 76.4448 55.9474 78.1776 59.8713 78.2048C59.9073 78.2055 59.942 78.2055 59.9652 78.2055C63.8582 78.2055 67.5645 76.5205 70.1358 73.5821L94.9921 45.1769C95.3569 47.3489 95.5519 49.5778 95.5519 51.8526C95.5519 73.9986 77.6276 92.0161 55.5961 92.0161C33.5646 92.0161 15.6403 73.9986 15.6403 51.8526C15.6403 47.1025 16.4556 42.4552 18.0643 38.0407C18.9799 35.5279 17.6956 32.7453 15.1957 31.8249C12.6972 30.9051 9.92769 32.1955 9.01205 34.7084C7.01345 40.1939 6 45.9621 6 51.8526C6 79.3419 28.2483 101.706 55.5961 101.706C82.9439 101.706 105.192 79.3419 105.192 51.8526C105.192 46.4376 104.322 41.2249 102.726 36.3403L109.668 28.4072C112.058 25.6764 113.246 22.1739 113.015 18.544C112.783 14.9148 111.16 11.5928 108.443 9.19055ZM102.429 22.0077L62.8975 67.1832C62.1601 68.0254 61.099 68.5105 59.9839 68.5163C59.9691 68.5163 59.9536 68.5156 59.9388 68.5156C58.8076 68.5085 57.7363 68.0092 56.9995 67.1451L39.5218 46.6491C38.1203 45.0055 38.3108 42.5218 39.9458 41.1124C40.6601 40.4973 41.55 40.1674 42.4804 40.1674C42.5821 40.1674 42.6838 40.1713 42.7861 40.1797C43.8265 40.2599 44.7731 40.7431 45.4526 41.5393L56.3901 54.3661C57.2987 55.4314 58.6223 56.0491 60.0186 56.0582C61.4317 56.0478 62.7462 55.467 63.6683 54.4127L96.5627 16.8216C97.2519 16.0344 98.2048 15.5635 99.246 15.4969C100.285 15.4296 101.292 15.7744 102.075 16.4665C102.859 17.1599 103.327 18.1171 103.394 19.1643C103.461 20.2102 103.118 21.2199 102.429 22.0077Z" fill="black" stroke="black" stroke-width="4"/>
<path d="M108.443 124.92C105.726 122.518 102.243 121.323 98.6308 121.556C95.0197 121.789 91.7155 123.421 89.3257 126.151L86.8754 128.951C78.3354 121.948 67.4519 117.729 55.5961 117.729C28.249 117.729 6 140.093 6 167.583C6 195.072 28.2483 217.436 55.5961 217.436C82.9439 217.436 105.192 195.072 105.192 167.583C105.192 162.169 104.317 156.959 102.72 152.075L109.667 144.136C112.057 141.406 113.246 137.903 113.015 134.273C112.783 130.644 111.16 127.322 108.443 124.92ZM102.429 137.737L81.9233 161.169C80.1654 163.178 80.3604 166.24 82.359 168.007C84.3575 169.775 87.4031 169.579 89.1616 167.569L94.9908 160.908C95.3556 163.079 95.5519 165.308 95.5519 167.583C95.5519 189.729 77.6276 207.746 55.5961 207.746C33.5646 207.746 15.6397 189.729 15.6397 167.583C15.6397 145.437 33.564 127.419 55.5955 127.419C65.0144 127.419 73.6735 130.723 80.5109 136.224L60.0971 159.552L52.7719 150.962C50.4175 148.201 47.1339 146.526 43.5267 146.247C39.9239 145.962 36.4197 147.117 33.6721 149.484C28.0012 154.371 27.3423 162.983 32.2031 168.683L49.6801 189.179C52.2334 192.174 55.9474 193.907 59.8713 193.934C59.9073 193.935 59.942 193.935 59.9652 193.935C63.8581 193.935 67.5645 192.25 70.1358 189.312L74.6117 184.198C76.3696 182.189 76.1753 179.127 74.1761 177.36C72.1775 175.591 69.1313 175.789 67.3734 177.797L62.8975 182.912C62.1607 183.753 61.1016 184.238 59.9826 184.245C59.9684 184.245 59.9536 184.244 59.9388 184.244C58.8076 184.237 57.7362 183.738 56.9995 182.873L39.5218 162.377C38.1203 160.733 38.3108 158.25 39.9458 156.84C40.7386 156.158 41.7501 155.824 42.7867 155.908C43.8272 155.988 44.7737 156.471 45.4532 157.267L56.3908 170.094C57.2993 171.159 58.6229 171.777 60.0193 171.786H60.0501C61.4355 171.786 62.754 171.187 63.669 170.141L96.5634 132.55C97.2525 131.763 98.2055 131.292 99.2466 131.226C100.286 131.157 101.293 131.503 102.076 132.195C102.86 132.888 103.327 133.846 103.394 134.893C103.461 135.939 103.118 136.949 102.429 137.737Z" fill="black" stroke="black" stroke-width="4"/>
</g>
<defs>
<filter id="filter0_d" x="0" y="0" width="290.552" height="227.436" filterUnits="userSpaceOnUse" color-interpolation-filters="sRGB">
<feFlood flood-opacity="0" result="BackgroundImageFix"/>
<feColorMatrix in="SourceAlpha" type="matrix" values="0 0 0 0 0 0 0 0 0 0 0 0 0 0 0 0 0 0 127 0"/>
<feOffset dy="4"/>
<feGaussianBlur stdDeviation="2"/>
<feColorMatrix type="matrix" values="0 0 0 0 0 0 0 0 0 0 0 0 0 0 0 0 0 0 0.25 0"/>
<feBlend mode="normal" in2="BackgroundImageFix" result="effect1_dropShadow"/>
<feBlend mode="normal" in="SourceGraphic" in2="effect1_dropShadow" result="shape"/>
</filter>
</defs>
</svg>
