<svg width="475" height="520" viewBox="0 0 475 520" fill="none" xmlns="http://www.w3.org/2000/svg">
<g id="manage_user" filter="url(#filter0_d)">
<g id="human-setting-icon">
<path id="Vector" d="M366.668 469.332C325.492 469.332 292 435.84 292 394.668C292 353.492 325.492 320 366.668 320C407.84 320 441.332 353.492 441.332 394.668C441.332 435.84 407.84 469.332 366.668 469.332V469.332ZM366.668 352C343.137 352 324 371.137 324 394.668C324 418.199 343.137 437.332 366.668 437.332C390.199 437.332 409.332 418.199 409.332 394.668C409.332 371.137 390.199 352 366.668 352V352Z" fill="black"/>
<path id="Vector_2" d="M366.668 512C357.836 512 350.668 504.832 350.668 496V453.332C350.668 444.5 357.836 437.332 366.668 437.332C375.5 437.332 382.668 444.5 382.668 453.332V496C382.668 504.832 375.5 512 366.668 512Z" fill="black"/>
<path id="Vector_3" d="M366.668 352C357.836 352 350.668 344.832 350.668 336V293.332C350.668 284.5 357.836 277.332 366.668 277.332C375.5 277.332 382.668 284.5 382.668 293.332V336C382.668 344.832 375.5 352 366.668 352Z" fill="black"/>
<path id="Vector_4" d="M417.441 381.441C411.914 381.441 406.539 378.582 403.574 373.441C399.156 365.781 401.781 356.012 409.418 351.574L446.324 330.238C453.961 325.824 463.754 328.449 468.191 336.086C472.609 343.742 469.984 353.516 462.348 357.953L425.441 379.285C422.922 380.758 420.172 381.441 417.441 381.441V381.441Z" fill="black"/>
<path id="Vector_5" d="M279.008 461.227C273.484 461.227 268.105 458.367 265.141 453.227C260.727 445.566 263.348 435.797 270.988 431.359L307.895 410.027C315.531 405.59 325.324 408.234 329.762 415.871C334.176 423.531 331.551 433.301 323.914 437.738L287.008 459.07C284.469 460.543 281.719 461.227 279.008 461.227V461.227Z" fill="black"/>
<path id="Vector_6" d="M315.895 381.441C313.184 381.441 310.41 380.758 307.895 379.285L270.988 357.953C263.348 353.516 260.727 343.742 265.141 336.086C269.578 328.449 279.371 325.824 287.008 330.238L323.914 351.574C331.551 356.012 334.176 365.781 329.762 373.441C326.773 378.582 321.398 381.441 315.895 381.441V381.441Z" fill="black"/>
<path id="Vector_7" d="M454.324 461.227C451.617 461.227 448.844 460.543 446.324 459.07L409.418 437.738C401.781 433.301 399.156 423.531 403.574 415.871C408.012 408.234 417.801 405.609 425.441 410.027L462.348 431.359C469.984 435.797 472.609 445.566 468.191 453.227C465.227 458.367 459.852 461.227 454.324 461.227Z" fill="black"/>
</g>
<g id="person-icon">
<path id="Vector_8" d="M196 213.332C137.184 213.332 89.332 165.484 89.332 106.668C89.332 47.8516 137.184 0 196 0C254.816 0 302.668 47.8516 302.668 106.668C302.668 165.484 254.816 213.332 196 213.332V213.332ZM196 32C154.828 32 121.332 65.4922 121.332 106.668C121.332 147.84 154.828 181.332 196 181.332C237.172 181.332 270.668 147.84 270.668 106.668C270.668 65.4922 237.172 32 196 32V32Z" fill="black"/>
<path id="Vector_9" d="M217.332 448H20C11.168 448 4 440.832 4 432V357.332C4 301.461 49.4609 256 105.332 256H286.668C295.5 256 302.668 263.168 302.668 272C302.668 280.832 295.5 288 286.668 288H105.332C67.1055 288 36 319.105 36 357.332V416H217.332C226.164 416 233.332 423.168 233.332 432C233.332 440.832 226.164 448 217.332 448V448Z" fill="black"/>
</g>
</g>
<defs>
<filter id="filter0_d" x="0" y="0" width="474.337" height="520" filterUnits="userSpaceOnUse" color-interpolation-filters="sRGB">
<feFlood flood-opacity="0" result="BackgroundImageFix"/>
<feColorMatrix in="SourceAlpha" type="matrix" values="0 0 0 0 0 0 0 0 0 0 0 0 0 0 0 0 0 0 127 0"/>
<feOffset dy="4"/>
<feGaussianBlur stdDeviation="2"/>
<feColorMatrix type="matrix" values="0 0 0 0 0 0 0 0 0 0 0 0 0 0 0 0 0 0 0.25 0"/>
<feBlend mode="normal" in2="BackgroundImageFix" result="effect1_dropShadow"/>
<feBlend mode="normal" in="SourceGraphic" in2="effect1_dropShadow" result="shape"/>
</filter>
</defs>
</svg>
