<svg width="512" height="512" viewBox="0 0 512 512" fill="none" xmlns="http://www.w3.org/2000/svg">
<path d="M502.625 100C497.45 100 493.25 95.8 493.25 90.625V34.375C493.25 25.7625 486.238 18.75 477.625 18.75H421.375C416.2 18.75 412 14.55 412 9.375C412 4.2 416.2 0 421.375 0H477.625C496.587 0 512 15.4125 512 34.375V90.625C512 95.8 507.8 100 502.625 100Z" fill="#6610F2"/>
<path d="M90.625 512H34.375C15.4125 512 0 496.587 0 477.625V421.375C0 416.2 4.2 412 9.375 412C14.55 412 18.75 416.2 18.75 421.375V477.625C18.75 486.238 25.7625 493.25 34.375 493.25H90.625C95.8 493.25 100 497.45 100 502.625C100 507.8 95.8 512 90.625 512Z" fill="#6610F2"/>
<path d="M477.625 512H421.375C416.2 512 412 507.8 412 502.625C412 497.45 416.2 493.25 421.375 493.25H477.625C486.238 493.25 493.25 486.238 493.25 477.625V421.375C493.25 416.2 497.45 412 502.625 412C507.8 412 512 416.2 512 421.375V477.625C512 496.587 496.587 512 477.625 512Z" fill="#6610F2"/>
<path d="M9.375 100C4.2 100 0 95.8 0 90.625V34.375C0 15.4125 15.4125 0 34.375 0H90.625C95.8 0 100 4.2 100 9.375C100 14.55 95.8 18.75 90.625 18.75H34.375C25.7625 18.75 18.75 25.7625 18.75 34.375V90.625C18.75 95.8 14.55 100 9.375 100Z" fill="#6610F2"/>
</svg>
