<svg width="512" height="480" viewBox="0 0 512 480" fill="none" xmlns="http://www.w3.org/2000/svg">
<g clip-path="url(#clip0)">
<path d="M16 162.656C7.16801 162.656 7.50001 153.28 7.50001 145L7.50001 55C7.50001 22.9688 4.00001 3.75 35.5 3.75H154.667C163.5 3.75 165.5 4.21875 165.5 12.6562C165.5 16.875 161.332 18.2812 152.5 18.2812L35.5 20.625C16 18.2812 21.5 41.22 21.5 55V145C21.5 153.28 24 159.219 16 162.656Z" fill="#6610F2"/>
<path d="M503.5 320.625C512.332 320.625 512 330.001 512 338.281L512 428.281C512 460.312 515.5 479.531 484 479.531H364.833C356 479.531 354 479.062 354 470.625C354 466.406 358.168 465 367 465L484 462.656C503.5 465 498 442.061 498 428.281V338.281C498 330.001 495.5 324.062 503.5 320.625Z" fill="#6610F2"/>
<path d="M169.5 472.031C169.5 480.311 159.499 480 150.667 480L54.6667 480C20.5 480 0 483.281 0 453.75L0 342.031C0 333.75 0.5 331.875 9.5 331.875C14 331.875 15.5 335.782 15.5 344.062L18 453.75C15.5 472.031 39.968 466.875 54.6667 466.875H150.667C159.499 466.875 165.833 464.531 169.5 472.031Z" fill="#6610F2"/>
<path d="M343 11.8272C343 3.54722 353.001 3.85847 361.833 3.85847L457.833 3.85847C492 3.85847 512.5 0.577219 512.5 30.1085V141.827C512.5 150.108 512 151.983 503 151.983C498.5 151.983 497 148.076 497 139.796L494.5 30.1085C497 11.8272 472.532 16.9835 457.833 16.9835L361.833 16.9835C353.001 16.9835 346.667 19.3272 343 11.8272Z" fill="#6610F2"/>
</g>
<defs>
<clipPath id="clip0">
<rect width="512" height="480" fill="white"/>
</clipPath>
</defs>
</svg>
