<svg width="246" height="173" viewBox="0 0 246 173" fill="none" xmlns="http://www.w3.org/2000/svg">
<g filter="url(#filter0_d)">
<path d="M236.136 62.1905C233.48 59.789 230.075 58.5962 226.545 58.8259C223.015 59.0587 219.785 60.6906 217.449 63.4214L215.063 66.2111C206.715 59.2081 196.068 55 184.479 55C172.475 55 160.956 59.5458 152.043 67.8009C150.11 69.592 149.954 72.6552 151.696 74.6442C153.437 76.6324 156.416 76.7922 158.35 75.0018C165.528 68.3527 174.808 64.6905 184.479 64.6905C193.686 64.6905 202.151 67.9924 208.834 73.4948L188.879 96.8238L181.719 88.2329C179.417 85.4717 176.207 83.7971 172.681 83.5177C169.16 83.2363 165.735 84.3883 163.049 86.755C157.506 91.6416 156.862 100.254 161.613 105.954L178.696 126.449C181.192 129.445 184.822 131.178 188.658 131.205C188.693 131.205 188.727 131.205 188.75 131.205C192.555 131.205 196.178 129.521 198.691 126.582L222.988 98.1769C223.344 100.349 223.535 102.578 223.535 104.853C223.535 126.999 206.014 145.016 184.479 145.016C162.944 145.016 145.423 126.999 145.423 104.853C145.423 100.102 146.22 95.4552 147.793 91.0407C148.688 88.5279 147.432 85.7453 144.989 84.8249C142.546 83.9051 139.839 85.1955 138.944 87.7084C136.991 93.1939 136 98.9621 136 104.853C136 132.342 157.747 154.706 184.479 154.706C211.211 154.706 232.958 132.342 232.958 104.853C232.958 99.4376 232.107 94.2249 230.547 89.3403L237.333 81.4072C239.669 78.6764 240.831 75.1739 240.605 71.544C240.378 67.9148 238.791 64.5928 236.136 62.1905ZM230.257 75.0077L191.616 120.183C190.895 121.025 189.858 121.51 188.768 121.516C188.754 121.516 188.738 121.516 188.724 121.516C187.618 121.509 186.571 121.009 185.851 120.145L168.767 99.6491C167.397 98.0055 167.583 95.5218 169.181 94.1124C169.879 93.4973 170.749 93.1674 171.659 93.1674C171.758 93.1674 171.858 93.1713 171.958 93.1797C172.975 93.2599 173.9 93.7431 174.564 94.5393L185.255 107.366C186.143 108.431 187.437 109.049 188.802 109.058C190.183 109.048 191.468 108.467 192.369 107.413L224.523 69.8216C225.197 69.0344 226.128 68.5635 227.146 68.4969C228.162 68.4296 229.146 68.7744 229.911 69.4665C230.677 70.1599 231.135 71.1171 231.2 72.1643C231.266 73.2102 230.931 74.2199 230.257 75.0077Z" fill="black" stroke="black" stroke-width="2"/>
<path d="M126.184 155.558C126.184 164.982 126.184 154.956 126.78 165L126.184 154.956C125.035 155.405 128.025 165 126.78 165C125.912 165 125.044 164.888 124.202 164.67L10.1973 134.699C5.56701 133.477 2.97122 129.281 4.39189 125.333C5.81256 121.376 10.7323 119.136 15.3539 120.372L126.184 149.512C126.184 155.558 126.184 151.738 126.184 155.558ZM126.184 119.541L15.3539 90.4007C10.7323 89.1644 5.82133 91.4048 4.39189 95.361C2.96245 99.3098 5.56701 103.506 10.1973 104.727L124.202 134.699C125.044 134.916 125.912 135.028 126.78 135.028C126.184 128.34 125.035 135.46 126.184 135.011C126.184 119.541 126.377 125.475 126.184 128.34C126.184 135.011 126.78 135.028 126.184 119.541ZM4.01479 67.967C3.83063 64.82 5.97041 61.9127 9.36424 60.6839L73.3909 37.6283C85.9928 33.0876 91.9912 27.4229 91.9912 7.49184C91.9912 5.19152 93.2277 3.01109 95.3499 1.59493C97.4722 0.171279 100.235 -0.330745 102.857 0.216237L216.326 24.1036C220.238 24.9278 223 27.9325 223 31.3792V32.5181C205.443 37.2536 205.443 37.2536 205.443 37.2536C173.881 58.0595 155.623 70.0955 142.623 78.6652C136.623 82.6205 138.623 81.302 128.893 87.7162C126.105 89.554 126.105 89.554 126.105 89.554C126.105 89.554 128.06 105.057 126.78 105.057C125.912 105.057 125.044 104.944 124.202 104.727L10.1973 74.7556C6.67198 73.8265 4.19896 71.114 4.01479 67.967ZM38.4091 66.4909L126.105 89.554C126.105 89.554 126.105 89.554 205.443 37.2536C225.5 30.0299 224.833 30.2702 205.443 37.2536L109.066 16.9554C107.373 32.3308 100.55 44.1096 80.2137 51.4377L38.4091 66.4909Z" fill="#030104"/>
</g>
<defs>
<filter id="filter0_d" x="0" y="0" width="245.633" height="173" filterUnits="userSpaceOnUse" color-interpolation-filters="sRGB">
<feFlood flood-opacity="0" result="BackgroundImageFix"/>
<feColorMatrix in="SourceAlpha" type="matrix" values="0 0 0 0 0 0 0 0 0 0 0 0 0 0 0 0 0 0 127 0"/>
<feOffset dy="4"/>
<feGaussianBlur stdDeviation="2"/>
<feColorMatrix type="matrix" values="0 0 0 0 0 0 0 0 0 0 0 0 0 0 0 0 0 0 0.25 0"/>
<feBlend mode="normal" in2="BackgroundImageFix" result="effect1_dropShadow"/>
<feBlend mode="normal" in="SourceGraphic" in2="effect1_dropShadow" result="shape"/>
</filter>
</defs>
</svg>
