<svg width="512" height="512" viewBox="0 0 512 512" fill="none" xmlns="http://www.w3.org/2000/svg">
<path d="M512 256C512 115.041 396.95 0 256 0C229.678 0 203.723 3.998 178.855 11.882C170.958 14.385 166.586 22.817 169.089 30.714C171.593 38.61 180.024 42.982 187.921 40.48C209.854 33.525 232.758 30 256 30C380.617 30 482 131.383 482 256C482 302.296 467.106 347.75 440.637 385.578C441.229 378.821 437.167 372.288 430.449 370.049C422.588 367.43 414.095 371.677 411.475 379.536L390.262 443.176C388.466 448.566 389.868 454.509 393.886 458.526C397.918 462.559 403.864 463.94 409.236 462.15L472.875 440.937C480.734 438.317 484.981 429.822 482.361 421.963C479.741 414.105 471.25 409.854 463.387 412.477L456.255 414.854C493.927 367.304 512 310.832 512 256Z" fill="black"/>
<path d="M256 512C282.322 512 308.277 508.002 333.145 500.118C341.042 497.615 345.414 489.183 342.91 481.286C340.407 473.39 331.978 469.018 324.078 471.52C302.147 478.475 279.242 482 256 482C131.383 482 30 380.617 30 256C30 209.704 44.894 164.25 71.364 126.422C70.771 133.18 74.834 139.712 81.551 141.951C89.409 144.571 97.905 140.324 100.525 132.465L121.738 68.825C123.535 63.435 122.132 57.492 118.114 53.475C114.097 49.458 108.155 48.055 102.764 49.851L39.124 71.064C31.265 73.684 27.018 82.179 29.638 90.038C32.258 97.897 40.749 102.147 48.612 99.524L55.744 97.147C18.073 144.696 0 201.168 0 256C0 396.959 115.05 512 256 512Z" fill="black"/>
<path d="M256.475 85C217.437 85 188 112.281 188 148.455C188 185.689 218.718 215.977 256.475 215.977C294.233 215.977 324.951 185.689 324.951 148.458C324.951 112.281 295.514 85 256.475 85ZM256.475 197.224C230.1 197.224 208.646 175.348 208.646 148.458C208.646 122.556 228.762 103.756 256.475 103.756C283.746 103.756 304.305 122.972 304.305 148.458C304.305 175.348 282.851 197.224 256.475 197.224Z" fill="black"/>
<path d="M265.28 231C177.399 231 129 275.588 129 356.552C129 362.875 133.779 368 139.675 368H390.884C396.78 368 401.559 362.875 401.559 356.552C401.56 275.592 353.161 231 265.28 231ZM150.738 345.103C154.936 284.568 193.418 253.897 265.28 253.897C337.141 253.897 375.624 284.568 379.826 345.103H150.738V345.103Z" fill="black"/>
</svg>
