<svg width="243" height="215" viewBox="0 0 243 215" fill="none" xmlns="http://www.w3.org/2000/svg">
<g filter="url(#filter0_d)">
<path d="M111.862 207C52.3912 207 4 160.567 4 103.501C4 46.4345 52.3912 0 111.862 0C132.542 0 152.662 5.65443 170.048 16.362C173.461 18.4708 174.461 22.8365 172.263 26.1203C170.058 29.4041 165.518 30.3534 162.096 28.2463C147.093 18.9963 129.718 14.1137 111.862 14.1137C60.4995 14.1137 18.7084 54.215 18.7084 103.501C18.7084 152.785 60.4995 192.886 111.862 192.886C163.223 192.886 205.014 152.785 205.014 103.501C205.014 100.555 204.867 97.638 204.583 94.7694C204.192 90.8826 207.153 87.4386 211.192 87.063C215.252 86.7047 218.83 89.5285 219.224 93.4049C219.556 96.7266 219.723 100.095 219.723 103.501C219.723 160.567 171.333 207 111.862 207V207Z" fill="black"/>
<path d="M124.155 127.314C122.279 127.314 120.402 126.624 118.976 125.235L74.9951 82.6987C72.1318 79.9276 72.1318 75.4378 74.9951 72.6685C77.8584 69.8992 82.5006 69.8992 85.3639 72.6685L124.165 110.196L226.482 11.2363C229.347 8.46697 233.989 8.46697 236.853 11.2363C239.716 14.0056 239.716 18.4954 236.853 21.2647L129.344 125.244C127.907 126.624 126.032 127.314 124.155 127.314V127.314Z" fill="black"/>
</g>
<defs>
<filter id="filter0_d" x="0" y="0" width="243" height="215" filterUnits="userSpaceOnUse" color-interpolation-filters="sRGB">
<feFlood flood-opacity="0" result="BackgroundImageFix"/>
<feColorMatrix in="SourceAlpha" type="matrix" values="0 0 0 0 0 0 0 0 0 0 0 0 0 0 0 0 0 0 127 0"/>
<feOffset dy="4"/>
<feGaussianBlur stdDeviation="2"/>
<feColorMatrix type="matrix" values="0 0 0 0 0 0 0 0 0 0 0 0 0 0 0 0 0 0 0.25 0"/>
<feBlend mode="normal" in2="BackgroundImageFix" result="effect1_dropShadow"/>
<feBlend mode="normal" in="SourceGraphic" in2="effect1_dropShadow" result="shape"/>
</filter>
</defs>
</svg>
