<svg width="322" height="181" viewBox="0 0 322 181" fill="none" xmlns="http://www.w3.org/2000/svg">
<g filter="url(#filter0_di)">
<path d="M4.06503 17.8865C4.06503 8.80953 14.5 0.796207 24.0677 0.796204H298.104C314.499 0.796204 318 17.8865 318 17.8865C318 62.7313 318 26.9335 318 39.5267C318 71.7783 318 39.5267 318 71.7783C318 92.7546 318 71.7783 318 92.7546C318 108.365 318 104 318 115.904C318 134 298.104 134 298.104 134H24.0677C13.0662 134 3.0979 127.934 4.06503 115.904C4.99216 104.348 4.06504 107.358 4.06503 92.7546C4.06502 71.7783 4.06503 71.7783 4.06503 71.7783L4.06503 59.1043C4.06503 38.1279 4.06503 57.3152 4.06503 37.4901C4.06503 20.9024 4.06503 29.5 4.06503 17.8865Z" fill="url(#paint0_linear)"/>
</g>
<g filter="url(#filter1_di)">
<path d="M82.438 104.229C102.894 104.012 115.129 95.2495 114.977 81.0126C114.863 70.2509 105.985 62.5533 92.9126 61.4586L92.9078 61.0102C102.488 59.5632 109.641 50.3798 109.549 41.8042C109.42 29.5852 98.4371 23.1691 81.3795 23.3502L43 23.7577L43.8587 104.639L82.438 104.229ZM58.0343 33.8566L77.8905 33.6457C88.6847 33.5311 94.8584 37.6137 94.9382 45.1245C95.0233 53.1399 87.9417 57.6995 75.0153 57.8367L58.2907 58.0143L58.0343 33.8566ZM58.6752 94.2233L58.3925 67.5992L78.1151 67.3898C92.2408 67.2399 99.6179 71.6459 99.7107 80.39C99.8035 89.1337 92.7237 93.8618 79.264 94.0047L58.6752 94.2233Z" fill="white"/>
<path d="M82.438 104.229C102.894 104.012 115.129 95.2495 114.977 81.0126C114.863 70.2509 105.985 62.5533 92.9126 61.4586L92.9078 61.0102C102.488 59.5632 109.641 50.3798 109.549 41.8042C109.42 29.5852 98.4371 23.1691 81.3795 23.3502L43 23.7577L43.8587 104.639L82.438 104.229ZM58.0343 33.8566L77.8905 33.6457C88.6847 33.5311 94.8584 37.6137 94.9382 45.1245C95.0233 53.1399 87.9417 57.6995 75.0153 57.8367L58.2907 58.0143L58.0343 33.8566ZM58.6752 94.2233L58.3925 67.5992L78.1151 67.3898C92.2408 67.2399 99.6179 71.6459 99.7107 80.39C99.8035 89.1337 92.7237 93.8618 79.264 94.0047L58.6752 94.2233Z" stroke="white"/>
</g>
<g filter="url(#filter2_di)">
<path d="M157.98 76.6508L139.488 28H116.602L147.073 105H167.868L198.398 28H175.872L157.98 76.6508Z" fill="white"/>
</g>
<g filter="url(#filter3_di)">
<path d="M268.07 29H259.93C256.954 29 254.541 31.2909 254.541 34.1187V58.0145H225.458V34.1187C225.458 31.2909 223.046 29 220.07 29H211.93C208.954 29 206.542 31.2909 206.542 34.1187V99.8813C206.542 102.709 208.954 105 211.93 105H220.07C223.046 105 225.458 102.709 225.458 99.8813V75.9855H254.542V99.8813C254.542 102.709 256.955 105 259.93 105H268.07C271.046 105 273.459 102.709 273.459 99.8813V34.1187C273.458 31.2909 271.045 29 268.07 29Z" fill="white"/>
</g>
<path d="M49.7 150.31V172H45.65V162.52H35.465V172H31.415V150.31H35.465V159.64H45.65V150.31H49.7ZM60.8865 156.37C62.0265 156.37 63.0615 156.555 63.9915 156.925C64.9315 157.295 65.7315 157.82 66.3915 158.5C67.0615 159.18 67.5765 160.01 67.9365 160.99C68.2965 161.97 68.4765 163.065 68.4765 164.275C68.4765 165.495 68.2965 166.595 67.9365 167.575C67.5765 168.555 67.0615 169.39 66.3915 170.08C65.7315 170.77 64.9315 171.3 63.9915 171.67C63.0615 172.04 62.0265 172.225 60.8865 172.225C59.7365 172.225 58.6915 172.04 57.7515 171.67C56.8115 171.3 56.0065 170.77 55.3365 170.08C54.6765 169.39 54.1615 168.555 53.7915 167.575C53.4315 166.595 53.2515 165.495 53.2515 164.275C53.2515 163.065 53.4315 161.97 53.7915 160.99C54.1615 160.01 54.6765 159.18 55.3365 158.5C56.0065 157.82 56.8115 157.295 57.7515 156.925C58.6915 156.555 59.7365 156.37 60.8865 156.37ZM60.8865 169.375C62.1665 169.375 63.1115 168.945 63.7215 168.085C64.3415 167.225 64.6515 165.965 64.6515 164.305C64.6515 162.645 64.3415 161.38 63.7215 160.51C63.1115 159.64 62.1665 159.205 60.8865 159.205C59.5865 159.205 58.6215 159.645 57.9915 160.525C57.3715 161.395 57.0615 162.655 57.0615 164.305C57.0615 165.955 57.3715 167.215 57.9915 168.085C58.6215 168.945 59.5865 169.375 60.8865 169.375ZM85.163 156.61V172H82.898C82.408 172 82.098 171.775 81.968 171.325L81.713 170.095C81.083 170.735 80.388 171.255 79.628 171.655C78.868 172.045 77.973 172.24 76.943 172.24C76.103 172.24 75.358 172.1 74.708 171.82C74.068 171.53 73.528 171.125 73.088 170.605C72.648 170.085 72.313 169.47 72.083 168.76C71.863 168.04 71.753 167.25 71.753 166.39V156.61H75.458V166.39C75.458 167.33 75.673 168.06 76.103 168.58C76.543 169.09 77.198 169.345 78.068 169.345C78.708 169.345 79.308 169.205 79.868 168.925C80.428 168.635 80.958 168.24 81.458 167.74V156.61H85.163ZM98.8266 159.61C98.7266 159.77 98.6216 159.885 98.5116 159.955C98.4016 160.015 98.2616 160.045 98.0916 160.045C97.9116 160.045 97.7166 159.995 97.5066 159.895C97.3066 159.795 97.0716 159.685 96.8016 159.565C96.5316 159.435 96.2216 159.32 95.8716 159.22C95.5316 159.12 95.1266 159.07 94.6566 159.07C93.9266 159.07 93.3516 159.225 92.9316 159.535C92.5216 159.845 92.3166 160.25 92.3166 160.75C92.3166 161.08 92.4216 161.36 92.6316 161.59C92.8516 161.81 93.1366 162.005 93.4866 162.175C93.8466 162.345 94.2516 162.5 94.7016 162.64C95.1516 162.77 95.6066 162.915 96.0666 163.075C96.5366 163.235 96.9966 163.42 97.4466 163.63C97.8966 163.83 98.2966 164.09 98.6466 164.41C99.0066 164.72 99.2916 165.095 99.5016 165.535C99.7216 165.975 99.8316 166.505 99.8316 167.125C99.8316 167.865 99.6966 168.55 99.4266 169.18C99.1666 169.8 98.7766 170.34 98.2566 170.8C97.7366 171.25 97.0916 171.605 96.3216 171.865C95.5616 172.115 94.6816 172.24 93.6816 172.24C93.1516 172.24 92.6316 172.19 92.1216 172.09C91.6216 172 91.1366 171.87 90.6666 171.7C90.2066 171.53 89.7766 171.33 89.3766 171.1C88.9866 170.87 88.6416 170.62 88.3416 170.35L89.1966 168.94C89.3066 168.77 89.4366 168.64 89.5866 168.55C89.7366 168.46 89.9266 168.415 90.1566 168.415C90.3866 168.415 90.6016 168.48 90.8016 168.61C91.0116 168.74 91.2516 168.88 91.5216 169.03C91.7916 169.18 92.1066 169.32 92.4666 169.45C92.8366 169.58 93.3016 169.645 93.8616 169.645C94.3016 169.645 94.6766 169.595 94.9866 169.495C95.3066 169.385 95.5666 169.245 95.7666 169.075C95.9766 168.905 96.1266 168.71 96.2166 168.49C96.3166 168.26 96.3666 168.025 96.3666 167.785C96.3666 167.425 96.2566 167.13 96.0366 166.9C95.8266 166.67 95.5416 166.47 95.1816 166.3C94.8316 166.13 94.4266 165.98 93.9666 165.85C93.5166 165.71 93.0516 165.56 92.5716 165.4C92.1016 165.24 91.6366 165.055 91.1766 164.845C90.7266 164.625 90.3216 164.35 89.9616 164.02C89.6116 163.69 89.3266 163.285 89.1066 162.805C88.8966 162.325 88.7916 161.745 88.7916 161.065C88.7916 160.435 88.9166 159.835 89.1666 159.265C89.4166 158.695 89.7816 158.2 90.2616 157.78C90.7516 157.35 91.3566 157.01 92.0766 156.76C92.8066 156.5 93.6466 156.37 94.5966 156.37C95.6566 156.37 96.6216 156.545 97.4916 156.895C98.3616 157.245 99.0866 157.705 99.6666 158.275L98.8266 159.61ZM113.135 162.535C113.135 162.055 113.065 161.605 112.925 161.185C112.795 160.755 112.595 160.38 112.325 160.06C112.055 159.74 111.71 159.49 111.29 159.31C110.88 159.12 110.4 159.025 109.85 159.025C108.78 159.025 107.935 159.33 107.315 159.94C106.705 160.55 106.315 161.415 106.145 162.535H113.135ZM106.07 164.77C106.13 165.56 106.27 166.245 106.49 166.825C106.71 167.395 107 167.87 107.36 168.25C107.72 168.62 108.145 168.9 108.635 169.09C109.135 169.27 109.685 169.36 110.285 169.36C110.885 169.36 111.4 169.29 111.83 169.15C112.27 169.01 112.65 168.855 112.97 168.685C113.3 168.515 113.585 168.36 113.825 168.22C114.075 168.08 114.315 168.01 114.545 168.01C114.855 168.01 115.085 168.125 115.235 168.355L116.3 169.705C115.89 170.185 115.43 170.59 114.92 170.92C114.41 171.24 113.875 171.5 113.315 171.7C112.765 171.89 112.2 172.025 111.62 172.105C111.05 172.185 110.495 172.225 109.955 172.225C108.885 172.225 107.89 172.05 106.97 171.7C106.05 171.34 105.25 170.815 104.57 170.125C103.89 169.425 103.355 168.565 102.965 167.545C102.575 166.515 102.38 165.325 102.38 163.975C102.38 162.925 102.55 161.94 102.89 161.02C103.23 160.09 103.715 159.285 104.345 158.605C104.985 157.915 105.76 157.37 106.67 156.97C107.59 156.57 108.625 156.37 109.775 156.37C110.745 156.37 111.64 156.525 112.46 156.835C113.28 157.145 113.985 157.6 114.575 158.2C115.165 158.79 115.625 159.52 115.955 160.39C116.295 161.25 116.465 162.235 116.465 163.345C116.465 163.905 116.405 164.285 116.285 164.485C116.165 164.675 115.935 164.77 115.595 164.77H106.07ZM124.085 159.4H125.03C125.41 159.4 125.725 159.35 125.975 159.25C126.225 159.14 126.44 158.97 126.62 158.74L132.605 151.165C132.855 150.845 133.115 150.625 133.385 150.505C133.665 150.375 134.015 150.31 134.435 150.31H137.915L130.61 159.325C130.18 159.875 129.735 160.265 129.275 160.495C129.605 160.615 129.9 160.785 130.16 161.005C130.43 161.215 130.685 161.495 130.925 161.845L138.455 172H134.9C134.42 172 134.06 171.935 133.82 171.805C133.59 171.665 133.395 171.465 133.235 171.205L127.1 163.195C126.91 162.925 126.69 162.735 126.44 162.625C126.19 162.515 125.83 162.46 125.36 162.46H124.085V172H120.05V150.31H124.085V159.4ZM149.433 162.535C149.433 162.055 149.363 161.605 149.223 161.185C149.093 160.755 148.893 160.38 148.623 160.06C148.353 159.74 148.008 159.49 147.588 159.31C147.178 159.12 146.698 159.025 146.148 159.025C145.078 159.025 144.233 159.33 143.613 159.94C143.003 160.55 142.613 161.415 142.443 162.535H149.433ZM142.368 164.77C142.428 165.56 142.568 166.245 142.788 166.825C143.008 167.395 143.298 167.87 143.658 168.25C144.018 168.62 144.443 168.9 144.933 169.09C145.433 169.27 145.983 169.36 146.583 169.36C147.183 169.36 147.698 169.29 148.128 169.15C148.568 169.01 148.948 168.855 149.268 168.685C149.598 168.515 149.883 168.36 150.123 168.22C150.373 168.08 150.613 168.01 150.843 168.01C151.153 168.01 151.383 168.125 151.533 168.355L152.598 169.705C152.188 170.185 151.728 170.59 151.218 170.92C150.708 171.24 150.173 171.5 149.613 171.7C149.063 171.89 148.498 172.025 147.918 172.105C147.348 172.185 146.793 172.225 146.253 172.225C145.183 172.225 144.188 172.05 143.268 171.7C142.348 171.34 141.548 170.815 140.868 170.125C140.188 169.425 139.653 168.565 139.263 167.545C138.873 166.515 138.678 165.325 138.678 163.975C138.678 162.925 138.848 161.94 139.188 161.02C139.528 160.09 140.013 159.285 140.643 158.605C141.283 157.915 142.058 157.37 142.968 156.97C143.888 156.57 144.923 156.37 146.073 156.37C147.043 156.37 147.938 156.525 148.758 156.835C149.578 157.145 150.283 157.6 150.873 158.2C151.463 158.79 151.923 159.52 152.253 160.39C152.593 161.25 152.763 162.235 152.763 163.345C152.763 163.905 152.703 164.285 152.583 164.485C152.463 164.675 152.233 164.77 151.893 164.77H142.368ZM166.058 162.535C166.058 162.055 165.988 161.605 165.848 161.185C165.718 160.755 165.518 160.38 165.248 160.06C164.978 159.74 164.633 159.49 164.213 159.31C163.803 159.12 163.323 159.025 162.773 159.025C161.703 159.025 160.858 159.33 160.238 159.94C159.628 160.55 159.238 161.415 159.068 162.535H166.058ZM158.993 164.77C159.053 165.56 159.193 166.245 159.413 166.825C159.633 167.395 159.923 167.87 160.283 168.25C160.643 168.62 161.068 168.9 161.558 169.09C162.058 169.27 162.608 169.36 163.208 169.36C163.808 169.36 164.323 169.29 164.753 169.15C165.193 169.01 165.573 168.855 165.893 168.685C166.223 168.515 166.508 168.36 166.748 168.22C166.998 168.08 167.238 168.01 167.468 168.01C167.778 168.01 168.008 168.125 168.158 168.355L169.223 169.705C168.813 170.185 168.353 170.59 167.843 170.92C167.333 171.24 166.798 171.5 166.238 171.7C165.688 171.89 165.123 172.025 164.543 172.105C163.973 172.185 163.418 172.225 162.878 172.225C161.808 172.225 160.813 172.05 159.893 171.7C158.973 171.34 158.173 170.815 157.493 170.125C156.813 169.425 156.278 168.565 155.888 167.545C155.498 166.515 155.303 165.325 155.303 163.975C155.303 162.925 155.473 161.94 155.813 161.02C156.153 160.09 156.638 159.285 157.268 158.605C157.908 157.915 158.683 157.37 159.593 156.97C160.513 156.57 161.548 156.37 162.698 156.37C163.668 156.37 164.563 156.525 165.383 156.835C166.203 157.145 166.908 157.6 167.498 158.2C168.088 158.79 168.548 159.52 168.878 160.39C169.218 161.25 169.388 162.235 169.388 163.345C169.388 163.905 169.328 164.285 169.208 164.485C169.088 164.675 168.858 164.77 168.518 164.77H158.993ZM176.474 168.01C176.894 168.52 177.349 168.88 177.839 169.09C178.339 169.3 178.879 169.405 179.459 169.405C180.019 169.405 180.524 169.3 180.974 169.09C181.424 168.88 181.804 168.56 182.114 168.13C182.434 167.7 182.679 167.16 182.849 166.51C183.019 165.85 183.104 165.075 183.104 164.185C183.104 163.285 183.029 162.525 182.879 161.905C182.739 161.275 182.534 160.765 182.264 160.375C181.994 159.985 181.664 159.7 181.274 159.52C180.894 159.34 180.459 159.25 179.969 159.25C179.199 159.25 178.544 159.415 178.004 159.745C177.464 160.065 176.954 160.52 176.474 161.11V168.01ZM176.279 158.71C176.909 158 177.624 157.425 178.424 156.985C179.224 156.545 180.164 156.325 181.244 156.325C182.084 156.325 182.849 156.5 183.539 156.85C184.239 157.2 184.839 157.71 185.339 158.38C185.849 159.04 186.239 159.86 186.509 160.84C186.789 161.81 186.929 162.925 186.929 164.185C186.929 165.335 186.774 166.4 186.464 167.38C186.154 168.36 185.709 169.21 185.129 169.93C184.559 170.65 183.864 171.215 183.044 171.625C182.234 172.025 181.324 172.225 180.314 172.225C179.454 172.225 178.719 172.095 178.109 171.835C177.499 171.565 176.954 171.195 176.474 170.725V177.025H172.769V156.61H175.034C175.514 156.61 175.829 156.835 175.979 157.285L176.279 158.71ZM194.259 156.61V172H190.539V156.61H194.259ZM194.769 152.125C194.769 152.445 194.704 152.745 194.574 153.025C194.444 153.305 194.269 153.55 194.049 153.76C193.839 153.97 193.589 154.14 193.299 154.27C193.009 154.39 192.699 154.45 192.369 154.45C192.049 154.45 191.744 154.39 191.454 154.27C191.174 154.14 190.929 153.97 190.719 153.76C190.509 153.55 190.339 153.305 190.209 153.025C190.089 152.745 190.029 152.445 190.029 152.125C190.029 151.795 190.089 151.485 190.209 151.195C190.339 150.905 190.509 150.655 190.719 150.445C190.929 150.235 191.174 150.07 191.454 149.95C191.744 149.82 192.049 149.755 192.369 149.755C192.699 149.755 193.009 149.82 193.299 149.95C193.589 150.07 193.839 150.235 194.049 150.445C194.269 150.655 194.444 150.905 194.574 151.195C194.704 151.485 194.769 151.795 194.769 152.125ZM202.102 158.5C202.412 158.19 202.737 157.905 203.077 157.645C203.427 157.375 203.792 157.15 204.172 156.97C204.562 156.78 204.977 156.635 205.417 156.535C205.857 156.425 206.337 156.37 206.857 156.37C207.697 156.37 208.442 156.515 209.092 156.805C209.742 157.085 210.282 157.485 210.712 158.005C211.152 158.515 211.482 159.13 211.702 159.85C211.932 160.56 212.047 161.345 212.047 162.205V172H208.342V162.205C208.342 161.265 208.127 160.54 207.697 160.03C207.267 159.51 206.612 159.25 205.732 159.25C205.092 159.25 204.492 159.395 203.932 159.685C203.372 159.975 202.842 160.37 202.342 160.87V172H198.637V156.61H200.902C201.382 156.61 201.697 156.835 201.847 157.285L202.102 158.5ZM221.795 163.93C222.255 163.93 222.655 163.87 222.995 163.75C223.335 163.62 223.615 163.445 223.835 163.225C224.065 163.005 224.235 162.74 224.345 162.43C224.465 162.12 224.525 161.78 224.525 161.41C224.525 160.65 224.295 160.05 223.835 159.61C223.385 159.16 222.705 158.935 221.795 158.935C220.885 158.935 220.2 159.16 219.74 159.61C219.29 160.05 219.065 160.65 219.065 161.41C219.065 161.77 219.12 162.105 219.23 162.415C219.35 162.725 219.52 162.995 219.74 163.225C219.97 163.445 220.255 163.62 220.595 163.75C220.945 163.87 221.345 163.93 221.795 163.93ZM225.98 172.69C225.98 172.39 225.89 172.145 225.71 171.955C225.53 171.765 225.285 171.62 224.975 171.52C224.665 171.41 224.3 171.33 223.88 171.28C223.47 171.23 223.03 171.195 222.56 171.175C222.1 171.145 221.62 171.12 221.12 171.1C220.63 171.08 220.15 171.04 219.68 170.98C219.27 171.21 218.935 171.48 218.675 171.79C218.425 172.1 218.3 172.46 218.3 172.87C218.3 173.14 218.365 173.39 218.495 173.62C218.635 173.86 218.85 174.065 219.14 174.235C219.44 174.405 219.825 174.535 220.295 174.625C220.765 174.725 221.34 174.775 222.02 174.775C222.71 174.775 223.305 174.72 223.805 174.61C224.305 174.51 224.715 174.365 225.035 174.175C225.365 173.995 225.605 173.775 225.755 173.515C225.905 173.265 225.98 172.99 225.98 172.69ZM229.67 157.135V158.515C229.67 158.955 229.405 159.225 228.875 159.325L227.495 159.58C227.705 160.11 227.81 160.69 227.81 161.32C227.81 162.08 227.655 162.77 227.345 163.39C227.045 164 226.625 164.52 226.085 164.95C225.545 165.38 224.905 165.715 224.165 165.955C223.435 166.185 222.645 166.3 221.795 166.3C221.495 166.3 221.205 166.285 220.925 166.255C220.645 166.225 220.37 166.185 220.1 166.135C219.62 166.425 219.38 166.75 219.38 167.11C219.38 167.42 219.52 167.65 219.8 167.8C220.09 167.94 220.47 168.04 220.94 168.1C221.41 168.16 221.945 168.2 222.545 168.22C223.145 168.23 223.76 168.26 224.39 168.31C225.02 168.36 225.635 168.45 226.235 168.58C226.835 168.7 227.37 168.895 227.84 169.165C228.31 169.435 228.685 169.805 228.965 170.275C229.255 170.735 229.4 171.33 229.4 172.06C229.4 172.74 229.23 173.4 228.89 174.04C228.56 174.68 228.075 175.25 227.435 175.75C226.805 176.25 226.025 176.65 225.095 176.95C224.175 177.26 223.125 177.415 221.945 177.415C220.785 177.415 219.775 177.3 218.915 177.07C218.055 176.85 217.34 176.55 216.77 176.17C216.2 175.8 215.775 175.37 215.495 174.88C215.215 174.39 215.075 173.88 215.075 173.35C215.075 172.63 215.29 172.03 215.72 171.55C216.16 171.06 216.76 170.67 217.52 170.38C217.11 170.17 216.785 169.89 216.545 169.54C216.305 169.19 216.185 168.73 216.185 168.16C216.185 167.93 216.225 167.695 216.305 167.455C216.395 167.205 216.52 166.96 216.68 166.72C216.85 166.48 217.06 166.255 217.31 166.045C217.56 165.825 217.855 165.63 218.195 165.46C217.415 165.04 216.8 164.48 216.35 163.78C215.91 163.08 215.69 162.26 215.69 161.32C215.69 160.56 215.84 159.875 216.14 159.265C216.45 158.645 216.875 158.12 217.415 157.69C217.965 157.25 218.61 156.915 219.35 156.685C220.1 156.455 220.915 156.34 221.795 156.34C222.455 156.34 223.075 156.41 223.655 156.55C224.235 156.68 224.765 156.875 225.245 157.135H229.67ZM251.564 163.81L248.924 156.595C248.794 156.275 248.659 155.895 248.519 155.455C248.379 155.015 248.239 154.54 248.099 154.03C247.969 154.54 247.834 155.02 247.694 155.47C247.554 155.91 247.419 156.295 247.289 156.625L244.664 163.81H251.564ZM258.689 172H255.569C255.219 172 254.934 171.915 254.714 171.745C254.494 171.565 254.329 171.345 254.219 171.085L252.599 166.66H243.614L241.994 171.085C241.914 171.315 241.759 171.525 241.529 171.715C241.299 171.905 241.014 172 240.674 172H237.524L246.059 150.31H250.169L258.689 172ZM264.624 168.01C265.044 168.52 265.499 168.88 265.989 169.09C266.489 169.3 267.029 169.405 267.609 169.405C268.169 169.405 268.674 169.3 269.124 169.09C269.574 168.88 269.954 168.56 270.264 168.13C270.584 167.7 270.829 167.16 270.999 166.51C271.169 165.85 271.254 165.075 271.254 164.185C271.254 163.285 271.179 162.525 271.029 161.905C270.889 161.275 270.684 160.765 270.414 160.375C270.144 159.985 269.814 159.7 269.424 159.52C269.044 159.34 268.609 159.25 268.119 159.25C267.349 159.25 266.694 159.415 266.154 159.745C265.614 160.065 265.104 160.52 264.624 161.11V168.01ZM264.429 158.71C265.059 158 265.774 157.425 266.574 156.985C267.374 156.545 268.314 156.325 269.394 156.325C270.234 156.325 270.999 156.5 271.689 156.85C272.389 157.2 272.989 157.71 273.489 158.38C273.999 159.04 274.389 159.86 274.659 160.84C274.939 161.81 275.079 162.925 275.079 164.185C275.079 165.335 274.924 166.4 274.614 167.38C274.304 168.36 273.859 169.21 273.279 169.93C272.709 170.65 272.014 171.215 271.194 171.625C270.384 172.025 269.474 172.225 268.464 172.225C267.604 172.225 266.869 172.095 266.259 171.835C265.649 171.565 265.104 171.195 264.624 170.725V177.025H260.919V156.61H263.184C263.664 156.61 263.979 156.835 264.129 157.285L264.429 158.71ZM282.275 168.01C282.695 168.52 283.15 168.88 283.64 169.09C284.14 169.3 284.68 169.405 285.26 169.405C285.82 169.405 286.325 169.3 286.775 169.09C287.225 168.88 287.605 168.56 287.915 168.13C288.235 167.7 288.48 167.16 288.65 166.51C288.82 165.85 288.905 165.075 288.905 164.185C288.905 163.285 288.83 162.525 288.68 161.905C288.54 161.275 288.335 160.765 288.065 160.375C287.795 159.985 287.465 159.7 287.075 159.52C286.695 159.34 286.26 159.25 285.77 159.25C285 159.25 284.345 159.415 283.805 159.745C283.265 160.065 282.755 160.52 282.275 161.11V168.01ZM282.08 158.71C282.71 158 283.425 157.425 284.225 156.985C285.025 156.545 285.965 156.325 287.045 156.325C287.885 156.325 288.65 156.5 289.34 156.85C290.04 157.2 290.64 157.71 291.14 158.38C291.65 159.04 292.04 159.86 292.31 160.84C292.59 161.81 292.73 162.925 292.73 164.185C292.73 165.335 292.575 166.4 292.265 167.38C291.955 168.36 291.51 169.21 290.93 169.93C290.36 170.65 289.665 171.215 288.845 171.625C288.035 172.025 287.125 172.225 286.115 172.225C285.255 172.225 284.52 172.095 283.91 171.835C283.3 171.565 282.755 171.195 282.275 170.725V177.025H278.57V156.61H280.835C281.315 156.61 281.63 156.835 281.78 157.285L282.08 158.71Z" fill="#00203F"/>
<defs>
<filter id="filter0_di" x="0" y="0.796204" width="322" height="141.204" filterUnits="userSpaceOnUse" color-interpolation-filters="sRGB">
<feFlood flood-opacity="0" result="BackgroundImageFix"/>
<feColorMatrix in="SourceAlpha" type="matrix" values="0 0 0 0 0 0 0 0 0 0 0 0 0 0 0 0 0 0 127 0"/>
<feOffset dy="4"/>
<feGaussianBlur stdDeviation="2"/>
<feColorMatrix type="matrix" values="0 0 0 0 0 0 0 0 0 0 0 0 0 0 0 0 0 0 0.25 0"/>
<feBlend mode="normal" in2="BackgroundImageFix" result="effect1_dropShadow"/>
<feBlend mode="normal" in="SourceGraphic" in2="effect1_dropShadow" result="shape"/>
<feColorMatrix in="SourceAlpha" type="matrix" values="0 0 0 0 0 0 0 0 0 0 0 0 0 0 0 0 0 0 127 0" result="hardAlpha"/>
<feOffset dy="4"/>
<feGaussianBlur stdDeviation="2"/>
<feComposite in2="hardAlpha" operator="arithmetic" k2="-1" k3="1"/>
<feColorMatrix type="matrix" values="0 0 0 0 0 0 0 0 0 0 0 0 0 0 0 0 0 0 0.25 0"/>
<feBlend mode="normal" in2="shape" result="effect2_innerShadow"/>
</filter>
<filter id="filter1_di" x="38.4947" y="22.8465" width="80.9841" height="90.2975" filterUnits="userSpaceOnUse" color-interpolation-filters="sRGB">
<feFlood flood-opacity="0" result="BackgroundImageFix"/>
<feColorMatrix in="SourceAlpha" type="matrix" values="0 0 0 0 0 0 0 0 0 0 0 0 0 0 0 0 0 0 127 0"/>
<feOffset dy="4"/>
<feGaussianBlur stdDeviation="2"/>
<feColorMatrix type="matrix" values="0 0 0 0 0 0 0 0 0 0 0 0 0 0 0 0 0 0 0.25 0"/>
<feBlend mode="normal" in2="BackgroundImageFix" result="effect1_dropShadow"/>
<feBlend mode="normal" in="SourceGraphic" in2="effect1_dropShadow" result="shape"/>
<feColorMatrix in="SourceAlpha" type="matrix" values="0 0 0 0 0 0 0 0 0 0 0 0 0 0 0 0 0 0 127 0" result="hardAlpha"/>
<feOffset dy="4"/>
<feGaussianBlur stdDeviation="2"/>
<feComposite in2="hardAlpha" operator="arithmetic" k2="-1" k3="1"/>
<feColorMatrix type="matrix" values="0 0 0 0 0 0 0 0 0 0 0 0 0 0 0 0 0 0 0.25 0"/>
<feBlend mode="normal" in2="shape" result="effect2_innerShadow"/>
</filter>
<filter id="filter2_di" x="111" y="28" width="93" height="85" filterUnits="userSpaceOnUse" color-interpolation-filters="sRGB">
<feFlood flood-opacity="0" result="BackgroundImageFix"/>
<feColorMatrix in="SourceAlpha" type="matrix" values="0 0 0 0 0 0 0 0 0 0 0 0 0 0 0 0 0 0 127 0"/>
<feOffset dy="4"/>
<feGaussianBlur stdDeviation="2"/>
<feColorMatrix type="matrix" values="0 0 0 0 0 0 0 0 0 0 0 0 0 0 0 0 0 0 0.25 0"/>
<feBlend mode="normal" in2="BackgroundImageFix" result="effect1_dropShadow"/>
<feBlend mode="normal" in="SourceGraphic" in2="effect1_dropShadow" result="shape"/>
<feColorMatrix in="SourceAlpha" type="matrix" values="0 0 0 0 0 0 0 0 0 0 0 0 0 0 0 0 0 0 127 0" result="hardAlpha"/>
<feOffset dy="4"/>
<feGaussianBlur stdDeviation="2"/>
<feComposite in2="hardAlpha" operator="arithmetic" k2="-1" k3="1"/>
<feColorMatrix type="matrix" values="0 0 0 0 0 0 0 0 0 0 0 0 0 0 0 0 0 0 0.25 0"/>
<feBlend mode="normal" in2="shape" result="effect2_innerShadow"/>
</filter>
<filter id="filter3_di" x="196" y="29" width="88" height="84" filterUnits="userSpaceOnUse" color-interpolation-filters="sRGB">
<feFlood flood-opacity="0" result="BackgroundImageFix"/>
<feColorMatrix in="SourceAlpha" type="matrix" values="0 0 0 0 0 0 0 0 0 0 0 0 0 0 0 0 0 0 127 0"/>
<feOffset dy="4"/>
<feGaussianBlur stdDeviation="2"/>
<feColorMatrix type="matrix" values="0 0 0 0 0 0 0 0 0 0 0 0 0 0 0 0 0 0 0.25 0"/>
<feBlend mode="normal" in2="BackgroundImageFix" result="effect1_dropShadow"/>
<feBlend mode="normal" in="SourceGraphic" in2="effect1_dropShadow" result="shape"/>
<feColorMatrix in="SourceAlpha" type="matrix" values="0 0 0 0 0 0 0 0 0 0 0 0 0 0 0 0 0 0 127 0" result="hardAlpha"/>
<feOffset dy="4"/>
<feGaussianBlur stdDeviation="2"/>
<feComposite in2="hardAlpha" operator="arithmetic" k2="-1" k3="1"/>
<feColorMatrix type="matrix" values="0 0 0 0 0 0 0 0 0 0 0 0 0 0 0 0 0 0 0.25 0"/>
<feBlend mode="normal" in2="shape" result="effect2_innerShadow"/>
</filter>
<linearGradient id="paint0_linear" x1="-18.859" y1="-19.6539" x2="148.767" y2="287.218" gradientUnits="userSpaceOnUse">
<stop stop-color="#2594DB"/>
<stop offset="1" stop-color="#6610F2"/>
</linearGradient>
</defs>
</svg>
